<?xml version="1.0" encoding="UTF-8" standalone="no" ?>
<!DOCTYPE svg PUBLIC "-//W3C//DTD SVG 1.1//EN" "http://www.w3.org/Graphics/SVG/1.1/DTD/svg11.dtd">
<svg xmlns="http://www.w3.org/2000/svg" xmlns:xlink="http://www.w3.org/1999/xlink" version="1.1" width="1200" height="600" viewBox="0 0 1200 600" xml:space="preserve">
<desc>Created with Fabric.js 5.2.4</desc>
<defs>
</defs>
<rect x="0" y="0" width="100%" height="100%" fill="transparent"></rect>
<g transform="matrix(0 0 0 0 0 0)" id="de6c2dd6-dbfc-4309-aea4-822021e95cdf"  >
</g>
<g transform="matrix(1 0 0 1 600 300)" id="883b3106-61a3-43ef-b93f-af11c9d6cec3"  >
<rect style="stroke: none; stroke-width: 1; stroke-dasharray: none; stroke-linecap: butt; stroke-dashoffset: 0; stroke-linejoin: miter; stroke-miterlimit: 4; fill: rgb(255,255,255); fill-rule: nonzero; opacity: 1; visibility: hidden;" vector-effect="non-scaling-stroke"  x="-600" y="-300" rx="0" ry="0" width="1200" height="600" />
</g>
<g transform="matrix(0.89 0.47 -5.17 9.79 133.46 467.22)" id="0db4d7d6-96ff-4b7a-bdd3-94b13abeb5c0"  >
<rect style="stroke: rgb(0,0,0); stroke-width: 0; stroke-dasharray: none; stroke-linecap: butt; stroke-dashoffset: 0; stroke-linejoin: miter; stroke-miterlimit: 4; fill: rgb(255,129,46); fill-rule: nonzero; opacity: 1;" vector-effect="non-scaling-stroke"  x="-33.085" y="-33.085" rx="0" ry="0" width="66.17" height="66.17" />
</g>
<g transform="matrix(0.87 -0.51 2.91 5.01 394.37 324.85)" id="0db4d7d6-96ff-4b7a-bdd3-94b13abeb5c0"  >
<rect style="stroke: rgb(0,0,0); stroke-width: 0; stroke-dasharray: none; stroke-linecap: butt; stroke-dashoffset: 0; stroke-linejoin: miter; stroke-miterlimit: 4; fill: rgb(255,129,46); fill-rule: nonzero; opacity: 1;" vector-effect="non-scaling-stroke"  x="-33.085" y="-33.085" rx="0" ry="0" width="66.17" height="66.17" />
</g>
<g transform="matrix(0.81 0.61 -4.71 6.22 636.6 294.59)" id="0db4d7d6-96ff-4b7a-bdd3-94b13abeb5c0"  >
<rect style="stroke: rgb(0,0,0); stroke-width: 0; stroke-dasharray: none; stroke-linecap: butt; stroke-dashoffset: 0; stroke-linejoin: miter; stroke-miterlimit: 4; fill: rgb(255,129,46); fill-rule: nonzero; opacity: 1;" vector-effect="non-scaling-stroke"  x="-33.085" y="-33.085" rx="0" ry="0" width="66.17" height="66.17" />
</g>
<g transform="matrix(0.89 -0.47 2.13 4.08 856.5 228.08)" id="0db4d7d6-96ff-4b7a-bdd3-94b13abeb5c0"  >
<rect style="stroke: rgb(0,0,0); stroke-width: 0; stroke-dasharray: none; stroke-linecap: butt; stroke-dashoffset: 0; stroke-linejoin: miter; stroke-miterlimit: 4; fill: rgb(255,129,46); fill-rule: nonzero; opacity: 1;" vector-effect="non-scaling-stroke"  x="-33.085" y="-33.085" rx="0" ry="0" width="66.17" height="66.17" />
</g>
<g transform="matrix(0 0 0 0 0 0)"  >
<g style=""   >
</g>
</g>
<g transform="matrix(0 0 0 0 0 0)"  >
<g style=""   >
</g>
</g>
<g transform="matrix(0.91 0.43 -1.97 4.15 989.52 244.08)" id="0db4d7d6-96ff-4b7a-bdd3-94b13abeb5c0"  >
<rect style="stroke: rgb(0,0,0); stroke-width: 0; stroke-dasharray: none; stroke-linecap: butt; stroke-dashoffset: 0; stroke-linejoin: miter; stroke-miterlimit: 4; fill: rgb(255,129,46); fill-rule: nonzero; opacity: 1;" vector-effect="non-scaling-stroke"  x="-33.085" y="-33.085" rx="0" ry="0" width="66.17" height="66.17" />
</g>
<g transform="matrix(2.46 -0.85 0.85 2.46 1032.85 148.23)"  >
<path style="stroke: rgb(0,0,0); stroke-width: 0; stroke-dasharray: none; stroke-linecap: butt; stroke-dashoffset: 0; stroke-linejoin: miter; stroke-miterlimit: 4; fill: rgb(255,129,46); fill-rule: nonzero; opacity: 1;" vector-effect="non-scaling-stroke"  transform=" translate(-49, -49.5)" d="M 76.208 78.885 C 81.17099999999999 78.885 85.214 74.78 85.214 69.821 L 85.214 21.8 C 85.214 16.838 81.17099999999999 12.796000000000001 76.208 12.796000000000001 L 28.19 12.796000000000001 C 23.227 12.796000000000001 19.125 16.838 19.125 21.8 C 19.37 28.537 36.025999999999996 30.987000000000002 47.912 36.193 L 14.53 69.575 C 12.203999999999999 71.9 12.203999999999999 75.699 14.53 78.02600000000001 L 20.961 84.45800000000001 C 23.290999999999997 86.78500000000001 27.084999999999997 86.78500000000001 29.413999999999998 84.45800000000001 L 62.43 51.505 C 67.084 63.021 69.409 78.026 76.208 78.885 z" stroke-linecap="round" />
</g>
<g transform="matrix(1.13 0.1 -0.14 1.61 489.48 491.75)" id="7bb75f9d-52d0-449a-9cb6-e49c01fdec98"  >
<polygon style="stroke: rgb(0,0,0); stroke-width: 0; stroke-dasharray: none; stroke-linecap: butt; stroke-dashoffset: 0; stroke-linejoin: miter; stroke-miterlimit: 4; fill: rgb(255,129,46); fill-rule: nonzero; opacity: 1;" vector-effect="non-scaling-stroke"  points="0,36.77 15.28,20.24 30.55,3.71 11.79,3.71 11.79,-36.77 -12.82,-36.77 -12.82,3.71 -30.55,3.71 -15.28,20.24 " />
</g>
<g transform="matrix(-1.16 0 0 -1.77 297.12 156.67)"  >
<polygon style="stroke: rgb(0,0,0); stroke-width: 0; stroke-dasharray: none; stroke-linecap: butt; stroke-dashoffset: 0; stroke-linejoin: miter; stroke-miterlimit: 4; fill: rgb(255,129,46); fill-rule: nonzero; opacity: 1;" vector-effect="non-scaling-stroke"  points="0,36.77 15.28,20.24 30.55,3.71 11.79,3.71 11.79,-36.77 -12.82,-36.77 -12.82,3.71 -30.55,3.71 -15.28,20.24 " />
</g>
<g transform="matrix(-1.13 -0.14 0.21 -1.69 788.13 94.55)"  >
<polygon style="stroke: rgb(0,0,0); stroke-width: 0; stroke-dasharray: none; stroke-linecap: butt; stroke-dashoffset: 0; stroke-linejoin: miter; stroke-miterlimit: 4; fill: rgb(255,129,46); fill-rule: nonzero; opacity: 1;" vector-effect="non-scaling-stroke"  points="0,36.77 15.28,20.24 30.55,3.71 11.79,3.71 11.79,-36.77 -12.82,-36.77 -12.82,3.71 -30.55,3.71 -15.28,20.24 " />
</g>
<g transform="matrix(1.13 0.06 -0.11 1.93 930.35 368.16)"  >
<polygon style="stroke: rgb(0,0,0); stroke-width: 0; stroke-dasharray: none; stroke-linecap: butt; stroke-dashoffset: 0; stroke-linejoin: miter; stroke-miterlimit: 4; fill: rgb(255,129,46); fill-rule: nonzero; opacity: 1;" vector-effect="non-scaling-stroke"  points="0,36.77 15.28,20.24 30.55,3.71 11.79,3.71 11.79,-36.77 -12.82,-36.77 -12.82,3.71 -30.55,3.71 -15.28,20.24 " />
</g>
<g transform="matrix(NaN NaN NaN NaN 0 0)"  >
<g style=""   >
</g>
</g>
<g transform="matrix(NaN NaN NaN NaN 0 0)"  >
<g style=""   >
</g>
</g>
<g transform="matrix(NaN NaN NaN NaN 0 0)"  >
<g style=""   >
</g>
</g>
<g transform="matrix(NaN NaN NaN NaN 0 0)"  >
<g style=""   >
</g>
</g>
<g transform="matrix(NaN NaN NaN NaN 0 0)"  >
<g style=""   >
</g>
</g>
<g transform="matrix(NaN NaN NaN NaN 0 0)"  >
<g style=""   >
</g>
</g>
<g transform="matrix(NaN NaN NaN NaN 0 0)"  >
<g style=""   >
</g>
</g>
<g transform="matrix(NaN NaN NaN NaN 0 0)"  >
<g style=""   >
</g>
</g>
<g transform="matrix(NaN NaN NaN NaN 0 0)"  >
<g style=""   >
</g>
</g>
<g transform="matrix(NaN NaN NaN NaN 0 0)"  >
<g style=""   >
</g>
</g>
<g transform="matrix(NaN NaN NaN NaN 0 0)"  >
<g style=""   >
</g>
</g>
</svg>