<?xml version="1.0" encoding="UTF-8" standalone="no"?>
<svg
   version="1.1"
   width="1200"
   height="600"
   viewBox="0 0 1200 600"
   xml:space="preserve"
   id="svg286"
   sodipodi:docname="logo.svg"
   inkscape:version="1.2.2 (732a01da63, 2022-12-09)"
   xmlns:inkscape="http://www.inkscape.org/namespaces/inkscape"
   xmlns:sodipodi="http://sodipodi.sourceforge.net/DTD/sodipodi-0.dtd"
   xmlns="http://www.w3.org/2000/svg"
   xmlns:svg="http://www.w3.org/2000/svg"><sodipodi:namedview
   id="namedview288"
   pagecolor="#505050"
   bordercolor="#eeeeee"
   borderopacity="1"
   inkscape:showpageshadow="0"
   inkscape:pageopacity="0"
   inkscape:pagecheckerboard="0"
   inkscape:deskcolor="#505050"
   showgrid="false"
   inkscape:zoom="0.5025"
   inkscape:cx="851.74129"
   inkscape:cy="437.81095"
   inkscape:window-width="1920"
   inkscape:window-height="1057"
   inkscape:window-x="-8"
   inkscape:window-y="-8"
   inkscape:window-maximized="1"
   inkscape:current-layer="svg286" />
<desc
   id="desc186">Created with Fabric.js 5.2.4</desc>
<defs
   id="defs188" />



<g
   transform="matrix(0.98093819,0.47,-5.698259,9.79,30.563053,467.22)"
   id="0db4d7d6-96ff-4b7a-bdd3-94b13abeb5c0"
   style="fill:#55ff55">
<rect
   style="opacity:1;fill:#55ff55;fill-rule:nonzero;stroke:#000000;stroke-width:0;stroke-linecap:butt;stroke-linejoin:miter;stroke-miterlimit:4;stroke-dasharray:none;stroke-dashoffset:0"
   vector-effect="non-scaling-stroke"
   x="-33.084999"
   y="-33.084999"
   rx="0"
   ry="0"
   width="66.169998"
   height="66.169998"
   id="rect196" />
</g>
<g
   transform="matrix(0.95889464,-0.51,3.2073372,5.01,318.13225,324.85)"
   id="g201"
   style="fill:#55ff55">
<rect
   style="opacity:1;fill:#55ff55;fill-rule:nonzero;stroke:#000000;stroke-width:0;stroke-linecap:butt;stroke-linejoin:miter;stroke-miterlimit:4;stroke-dasharray:none;stroke-dashoffset:0"
   vector-effect="non-scaling-stroke"
   x="-33.084999"
   y="-33.084999"
   rx="0"
   ry="0"
   width="66.169998"
   height="66.169998"
   id="rect199" />
</g>
<g
   transform="matrix(0.89276397,0.61,-5.1912572,6.22,585.11276,294.59)"
   id="g205"
   style="fill:#55ff55">
<rect
   style="opacity:1;fill:#55ff55;fill-rule:nonzero;stroke:#000000;stroke-width:0;stroke-linecap:butt;stroke-linejoin:miter;stroke-miterlimit:4;stroke-dasharray:none;stroke-dashoffset:0"
   vector-effect="non-scaling-stroke"
   x="-33.084999"
   y="-33.084999"
   rx="0"
   ry="0"
   width="66.169998"
   height="66.169998"
   id="rect203" />
</g>
<g
   transform="matrix(0.98093819,-0.47,2.3476386,4.08,827.48165,228.08)"
   id="g209"
   style="fill:#55ff55">
<rect
   style="opacity:1;fill:#55ff55;fill-rule:nonzero;stroke:#000000;stroke-width:0;stroke-linecap:butt;stroke-linejoin:miter;stroke-miterlimit:4;stroke-dasharray:none;stroke-dashoffset:0"
   vector-effect="non-scaling-stroke"
   x="-33.084999"
   y="-33.084999"
   rx="0"
   ry="0"
   width="66.169998"
   height="66.169998"
   id="rect207" />
</g>


<g
   transform="matrix(1.0029817,0.43,-2.1712902,4.15,974.09333,244.08)"
   id="g221"
   style="fill:#55ff55">
<rect
   style="opacity:1;fill:#55ff55;fill-rule:nonzero;stroke:#000000;stroke-width:0;stroke-linecap:butt;stroke-linejoin:miter;stroke-miterlimit:4;stroke-dasharray:none;stroke-dashoffset:0"
   vector-effect="non-scaling-stroke"
   x="-33.084999"
   y="-33.084999"
   rx="0"
   ry="0"
   width="66.169998"
   height="66.169998"
   id="rect219" />
</g>
<g
   transform="matrix(2.7113573,-0.85,0.93685108,2.46,1021.8507,148.23)"
   id="g225"
   style="fill:#55ff55">
<path
   style="opacity:1;fill:#55ff55;fill-rule:nonzero;stroke:#000000;stroke-width:0;stroke-linecap:butt;stroke-linejoin:miter;stroke-miterlimit:4;stroke-dasharray:none;stroke-dashoffset:0"
   vector-effect="non-scaling-stroke"
   transform="translate(-49,-49.5)"
   d="m 76.208,78.885 c 4.963,0 9.006,-4.105 9.006,-9.064 V 21.8 c 0,-4.962 -4.043,-9.004 -9.006,-9.004 H 28.19 c -4.963,0 -9.065,4.042 -9.065,9.004 0.245,6.737 16.901,9.187 28.787,14.393 L 14.53,69.575 c -2.326,2.325 -2.326,6.124 0,8.451 l 6.431,6.432 c 2.33,2.327 6.124,2.327 8.453,0 L 62.43,51.505 c 4.654,11.516 6.979,26.521 13.778,27.38 z"
   stroke-linecap="round"
   id="path223" />
</g>
<g
   transform="matrix(1.2454609,0.1,-0.15430488,1.61,422.96037,491.75)"
   id="7bb75f9d-52d0-449a-9cb6-e49c01fdec98"
   style="fill:#55ff55">
<polygon
   style="opacity:1;fill:#55ff55;fill-rule:nonzero;stroke:#000000;stroke-width:0;stroke-linecap:butt;stroke-linejoin:miter;stroke-miterlimit:4;stroke-dasharray:none;stroke-dashoffset:0"
   vector-effect="non-scaling-stroke"
   points="-12.82,-36.77 -12.82,3.71 -30.55,3.71 -15.28,20.24 0,36.77 15.28,20.24 30.55,3.71 11.79,3.71 11.79,-36.77 "
   id="polygon227" />
</g>
<g
   transform="matrix(-1.2785262,0,0,-1.77,210.94546,156.67)"
   id="g232"
   style="fill:#55ff55">
<polygon
   style="opacity:1;fill:#55ff55;fill-rule:nonzero;stroke:#000000;stroke-width:0;stroke-linecap:butt;stroke-linejoin:miter;stroke-miterlimit:4;stroke-dasharray:none;stroke-dashoffset:0"
   vector-effect="non-scaling-stroke"
   points="-12.82,-36.77 -12.82,3.71 -30.55,3.71 -15.28,20.24 0,36.77 15.28,20.24 30.55,3.71 11.79,3.71 11.79,-36.77 "
   id="polygon230" />
</g>
<g
   transform="matrix(-1.2454609,-0.14,0.23145733,-1.69,752.12576,94.55)"
   id="g236"
   style="fill:#55ff55">
<polygon
   style="opacity:1;fill:#55ff55;fill-rule:nonzero;stroke:#000000;stroke-width:0;stroke-linecap:butt;stroke-linejoin:miter;stroke-miterlimit:4;stroke-dasharray:none;stroke-dashoffset:0"
   vector-effect="non-scaling-stroke"
   points="-12.82,-36.77 -12.82,3.71 -30.55,3.71 -15.28,20.24 0,36.77 15.28,20.24 30.55,3.71 11.79,3.71 11.79,-36.77 "
   id="polygon234" />
</g>
<g
   transform="matrix(1.2454609,0.06,-0.12123955,1.93,908.87748,368.16)"
   id="g240"
   style="fill:#55ff55">
<polygon
   style="opacity:1;fill:#55ff55;fill-rule:nonzero;stroke:#000000;stroke-width:0;stroke-linecap:butt;stroke-linejoin:miter;stroke-miterlimit:4;stroke-dasharray:none;stroke-dashoffset:0"
   vector-effect="non-scaling-stroke"
   points="-12.82,-36.77 -12.82,3.71 -30.55,3.71 -15.28,20.24 0,36.77 15.28,20.24 30.55,3.71 11.79,3.71 11.79,-36.77 "
   id="polygon238" />
</g>











</svg>
